<svg width="207" height="27" viewBox="0 0 207 27" fill="none" xmlns="http://www.w3.org/2000/svg">
<path d="M0.564341 12.9968L0.659156 25.769H6.49027C13.0325 25.769 14.4547 25.4329 16.1614 23.569C17.0147 22.6524 17.1095 22.0107 17.0621 18.7107C17.0147 15.3802 16.8725 14.769 15.9717 13.7913C15.071 12.8135 15.0236 12.5996 15.5925 12.2024C16.7303 11.4996 17.3466 9.11626 17.2043 6.2746C17.0147 3.92182 16.8251 3.40238 15.6873 2.27182C14.9762 1.56904 13.791 0.866264 13.1273 0.682932C12.4162 0.530153 9.2873 0.346821 6.15842 0.316265L0.422119 0.255154L0.564341 12.9968ZM11.468 6.8246C11.6577 10.6746 11.6577 10.7357 8.24434 10.8579C6.01619 10.919 5.4473 10.8579 5.63693 10.5524C5.77916 10.3079 5.87397 8.7496 5.87397 7.03849V3.92182L8.6236 4.0746L11.3258 4.22738L11.468 6.8246ZM10.994 14.7385C11.7999 15.044 12.1317 20.7885 11.3732 21.5524C10.994 21.9802 10.2355 22.1024 8.14953 22.1024C5.87397 22.1024 5.49471 22.0413 5.63693 21.5524C5.73175 21.2774 5.82656 19.5663 5.82656 17.7329L5.87397 14.4635H8.14953C9.38212 14.4635 10.6621 14.5857 10.994 14.7385Z" fill="white"/>
<path d="M26.3065 1.63015C25.7377 3.21904 24.0784 10.5829 23.6043 13.6996C23.4621 14.8607 23.0828 16.0218 22.7984 16.2357C22.514 16.4802 22.2295 17.7329 22.1347 19.0468C22.0873 20.3607 21.708 22.2857 21.2814 23.3552C20.9021 24.4246 20.5703 25.4635 20.5703 25.6163C20.5703 25.7996 21.6132 25.8607 23.3199 25.769L26.0221 25.6163L26.354 24.0885C26.591 23.2329 26.8754 21.919 27.0177 21.094L27.3495 19.6579H30.2888C33.7495 19.6579 33.5599 19.5052 34.1288 23.3857L34.4606 25.769H37.3051H40.1495L39.8177 24.7607C39.628 24.2413 38.8695 20.544 38.111 16.6024C36.7836 9.8496 35.7406 5.29682 34.7451 1.78293L34.271 0.224596L30.5258 0.255152H26.7806L26.3065 1.63015ZM31.9006 10.7968C32.4695 13.7302 32.8962 16.2357 32.8962 16.3274C32.8962 16.419 31.8058 16.5413 30.4784 16.5718L28.0606 16.6024L28.3925 14.4024C28.5347 13.1802 28.8665 11.4385 29.151 10.5218C29.388 9.60515 29.5777 8.29126 29.5777 7.61904C29.5777 6.67182 29.7199 6.48849 30.0991 6.8246C30.431 7.16071 30.4784 6.85515 30.2888 5.75515C30.0991 4.68571 30.1465 4.41071 30.4784 4.83849C30.7154 5.1746 31.3791 7.86349 31.9006 10.7968Z" fill="white"/>
<path d="M50.911 0.285711C50.2473 0.377378 49.0621 0.499599 48.2088 0.591267C47.1658 0.682934 46.2177 1.11071 45.1747 1.96627L43.6577 3.21904L43.7051 12.7829L43.7525 22.3468L44.9851 23.6302C46.5495 25.219 48.4932 25.769 52.5228 25.769C55.2251 25.769 55.7465 25.6774 57.4532 24.7607C59.871 23.5079 60.3925 22.6218 60.3925 19.5052V16.9996L57.7851 17.0302H55.1777V19.1996C55.1777 20.4829 54.9406 21.5218 54.6088 21.7357C54.2769 21.9496 53.1865 22.1024 52.0962 22.1024C51.0058 22.1024 49.9154 21.9496 49.5836 21.7357C48.7777 21.2163 48.7777 4.65516 49.5836 4.13571C49.9154 3.92182 51.0058 3.76904 52.0962 3.76904C53.1865 3.76904 54.2769 3.92182 54.6088 4.13571C54.9406 4.3496 55.1777 5.32738 55.1777 6.42738C55.1777 8.04682 55.3199 8.35238 56.031 8.38293C56.4577 8.41349 57.7377 8.4746 58.828 8.53571C60.0132 8.59682 60.9614 8.50516 61.151 8.29127C61.3406 8.07738 61.2932 8.04682 60.9614 8.16904C60.5347 8.32182 60.3925 7.74127 60.3925 6.06071C60.3925 3.37182 59.634 1.96627 57.6902 1.08016C56.3154 0.438488 53.0443 0.0718231 50.911 0.285711Z" fill="white"/>
<path d="M64.7066 12.9968L64.6118 25.769H67.2666C69.7792 25.769 69.874 25.7385 69.874 24.9135C69.9214 24.4552 69.9214 21.919 69.874 19.2607L69.8266 14.4635H73.1925H76.511V20.1163V25.769H79.3081H82.1525L82.1051 12.9052L82.0577 0.0718212L81.0621 0.224598C80.4932 0.316265 79.3081 0.407932 78.4073 0.407932H76.7481L76.6058 5.69404C76.511 8.56627 76.3688 10.9802 76.3688 11.0107C76.3214 11.0107 74.8992 11.1329 73.1925 11.2552L70.0636 11.469L70.2532 7.46626C70.3955 5.26627 70.3006 2.76071 70.1584 1.8746L69.8266 0.255154L67.314 0.224598H64.754L64.7066 12.9968Z" fill="white"/>
<path d="M87.2725 12.8441C87.3673 21.7052 87.557 25.6468 87.8888 25.7079C88.1732 25.7691 89.311 25.7385 90.4488 25.6468L92.4873 25.4329L92.3451 20.3302C92.2977 17.5191 92.3925 14.6163 92.5821 13.8524L92.8666 12.4774L93.6725 14.0052C94.1466 14.8302 94.9525 16.3579 95.474 17.3357C96.517 19.3218 97.6073 20.5746 98.271 20.5746C98.5081 20.5746 98.8873 20.1163 99.0295 19.5663C99.2192 19.0468 99.551 18.4357 99.7407 18.2829C99.9303 18.0996 100.689 16.7857 101.4 15.2885C102.158 13.8218 102.822 12.6913 102.964 12.7829C103.107 12.8746 103.154 15.8385 103.107 19.3829L103.012 25.8607L105.43 25.7079C106.757 25.6163 107.895 25.4941 108.037 25.4329C108.369 25.1885 108.511 0.469049 108.132 0.224606C107.515 -0.203173 104.339 0.530161 103.438 1.32461C102.633 2.05794 99.8355 7.31349 98.5555 10.6441C97.8918 12.3552 97.797 12.2941 96.4695 8.9635C95.2844 5.93849 93.6725 2.63849 92.8666 1.38572C92.2977 0.560717 91.9184 0.407938 90.6384 0.407938C89.7851 0.407938 88.6473 0.316271 88.1258 0.224606C87.1777 0.0718269 87.1777 0.19405 87.2725 12.8441Z" fill="white"/>
<path d="M117.85 2.18012C117.234 4.47178 117.281 4.319 115.859 10.7968C115.29 13.394 114.674 15.8079 114.437 16.144C114.2 16.4801 113.868 17.7023 113.726 18.894C113.536 20.0551 113.11 21.7968 112.73 22.7134C111.545 25.6162 111.64 25.769 114.674 25.769C117.566 25.769 117.566 25.769 117.992 23.6301C118.135 22.8662 118.372 21.6746 118.561 20.9412L118.846 19.6579H122.022H125.198L125.625 22.6218L126.052 25.6162L128.564 25.7079L131.03 25.7996V24.7912C131.03 22.744 128.659 9.78845 127.474 5.32734C126.81 2.79123 126.289 0.591227 126.289 0.43845C126.289 0.285671 124.535 0.132895 122.354 0.132895H118.419L117.85 2.18012ZM123.681 10.5523C124.108 13.119 124.582 15.4718 124.677 15.7468C124.914 16.2357 124.582 16.2968 122.307 16.2968C119.699 16.2968 119.699 16.2968 119.889 15.4412C119.984 14.9829 120.458 12.7523 120.837 10.4912C121.264 8.23012 121.738 5.87734 121.88 5.29678C122.164 4.22734 122.164 4.22734 122.544 5.05234C122.733 5.51067 123.255 7.98567 123.681 10.5523Z" fill="white"/>
<path d="M135.059 12.9968V25.769H137.809H140.511V18.4051C140.511 14.0968 140.701 11.1329 140.938 11.2246C141.175 11.3468 142.075 12.7523 142.881 14.4023C143.735 16.0218 144.825 17.9468 145.299 18.6496C145.773 19.3218 146.674 21.1857 147.338 22.7746L148.475 25.6162L151.13 25.7079L153.785 25.7996V12.9051C153.785 1.294 153.69 0.0412254 153.027 0.22456C152.6 0.316225 151.462 0.407892 150.419 0.407892H148.57L148.523 5.969C148.475 9.05511 148.286 11.9579 148.096 12.4773C147.764 13.3329 147.717 13.3329 147.67 12.6301C147.622 12.2023 147.053 11.0412 146.39 10.0329C145.726 9.02456 144.351 6.70234 143.355 4.869C142.36 3.03567 141.127 1.294 140.653 1.019C140.179 0.713448 138.804 0.407892 137.43 0.346781L135.059 0.194004V12.9968ZM148.428 14.5246C148.286 14.769 148.144 14.6773 148.144 14.3412C148.096 14.0051 148.238 13.8218 148.381 13.944C148.523 14.0357 148.57 14.3107 148.428 14.5246Z" fill="white"/>
<path d="M170.359 1.04592C168.083 1.13758 167.893 1.1987 168.036 1.80981C168.178 2.17647 168.273 3.00147 168.273 3.61258L168.32 4.77369H171.402H174.531L174.483 10.4876C174.436 13.6654 174.436 18.5237 174.436 21.3348L174.483 26.4681H177.091H179.698V15.6209C179.698 5.50703 179.745 4.77369 180.551 4.71258C180.978 4.71258 182.211 4.65147 183.253 4.65147L185.15 4.62092L185.197 2.87925L185.245 1.13758L179.034 1.04592C175.621 0.984806 171.686 0.984806 170.359 1.04592Z" fill="white"/>
<path d="M187.616 1.22231C187.948 1.86398 188.612 3.17787 189.039 4.1862C190.271 6.9362 193.116 12.8945 193.874 14.2084C194.348 15.0334 194.538 16.8362 194.538 20.564V25.7584L197.287 25.6668L199.99 25.5751L199.847 20.9001C199.705 16.3473 199.753 16.1029 201.127 13.5668C201.886 12.1001 202.881 9.65565 203.356 8.15842C203.782 6.63065 204.636 4.1862 205.204 2.68898L206.295 8.96454e-05L204.873 0.183422C204.067 0.275089 202.834 0.366756 202.123 0.366756C200.843 0.366756 200.843 0.397312 199.326 5.0112C198.473 7.57787 197.667 9.90009 197.524 10.1445C197.193 10.7556 196.576 9.71676 195.676 7.08898C194.964 4.91953 193.21 0.6112 193.021 0.519533C192.926 0.488977 191.551 0.366756 189.939 0.275089L187 0.122313L187.616 1.22231Z" fill="white"/>
<path d="M160.021 1.21229C160.065 1.27393 159.923 0.662815 160.065 1.27393C160.207 1.64059 160.206 2.66282 160.206 3.27393L160.301 4.8484L160.254 10.5623C160.206 13.7401 160.206 18.5984 160.206 21.4095L160.254 26.5428H162.861H165.468V15.6956C165.468 5.58174 165.259 4.83504 166.065 4.77393C166.492 4.77393 164.905 4.77393 165.948 4.77393L165.938 4.95715L166.065 2.77393V1.21229L164.805 1.12062C161.391 1.05951 161.349 1.15118 160.021 1.21229Z" fill="white"/>
</svg>
