<svg width="44" height="68" viewBox="0 0 44 68" fill="none" xmlns="http://www.w3.org/2000/svg">
<path d="M42.8885 32.979C42.9514 33.035 43.0097 33.0937 43.0777 33.1454C43.1089 33.1689 43.175 33.1972 43.1917 33.1862C43.2534 33.1482 43.3355 33.1016 43.3461 33.0452C43.3662 32.9375 43.3459 32.8223 43.3397 32.7096C43.2749 31.7669 43.3046 30.8347 43.5075 29.9191C43.6385 29.3315 43.594 28.7287 43.597 28.1295C43.6096 26.0672 43.5386 24.0033 43.3927 21.9361C43.285 20.3926 43.039 18.8604 42.423 17.3651C41.9325 16.1746 41.4834 14.9759 41.0147 13.7806C40.8016 13.2382 40.6042 12.69 40.3711 12.1527C39.7625 10.7526 38.973 9.41054 38.2975 8.03147C37.5873 6.58042 36.8565 5.13793 36.1304 3.69277C35.9714 3.3764 35.7926 3.06515 35.6181 2.75295C35.4018 2.36213 35.096 2.03419 34.6673 1.79117L34.6767 1.78586C34.6092 1.81038 34.538 1.80943 34.4699 1.78076C34.4353 1.75304 34.3986 1.72494 34.3642 1.69551C34.2043 1.41788 34.0337 1.1524 33.7132 0.970321C33.4893 0.843491 33.2754 0.697291 33.0735 0.542736C32.7524 0.296848 32.3844 0.189054 31.9739 0.174123C31.6258 0.16203 31.2762 0.146134 30.9514 0.133087C30.352 0.420731 30.0474 0.915701 29.6516 1.35999C29.4552 1.31084 29.2892 1.26739 29.1209 1.22525C28.8663 1.16168 28.6125 1.0717 28.3542 1.03927C28.0402 1.00172 27.9635 1.28812 27.7539 1.39926C27.6096 1.47487 27.4401 1.51745 27.2911 1.58509C26.8846 1.77261 26.7762 1.95933 26.9625 2.30913C27.2113 2.77325 27.3173 3.24953 27.3536 3.73933C27.3655 3.88841 27.3728 4.04016 27.3598 4.18811C27.1884 6.05619 26.7896 7.87283 25.9956 9.5925C25.5715 10.5127 25.1079 11.4203 24.6429 12.324C24.2086 13.1644 23.596 13.9149 23.0166 14.6787C22.1604 15.8117 21.295 16.9377 20.5011 18.1072C20.0546 18.7667 19.4646 19.3515 18.9489 19.9768C18.2113 20.8684 17.4757 21.7604 16.8474 22.7185C16.4097 23.3867 15.9031 24.019 15.3165 24.5974C14.9739 24.9367 14.7834 25.338 14.5973 25.7491C14.411 26.1618 13.8814 26.3793 13.7642 26.8369C13.7464 26.9096 13.7249 26.9799 13.7051 27.0523L13.7068 27.0544C13.9703 26.9356 14.2327 26.8113 14.5014 26.6989C14.6565 26.6324 14.8875 26.7322 14.9267 26.8811C15.0137 27.2123 15.0367 27.5492 15.302 27.8466C15.5588 28.1335 15.8414 28.3722 16.2494 28.468C16.5932 28.5483 16.9402 28.6221 17.2875 28.6836C17.5963 28.7379 17.905 28.7249 18.1934 28.6303C18.5957 28.4986 19.0093 28.3849 19.3907 28.2192C19.927 27.9888 20.4523 27.7492 21.0309 27.5833C21.3457 27.4936 21.6171 27.2879 21.8762 27.1028C23.0872 26.2379 24.3353 25.41 25.4663 24.4682C25.5014 24.4376 25.6211 24.4707 25.6951 24.4898C25.7151 24.4953 25.734 24.5625 25.7279 24.595C25.6718 24.8499 25.6296 25.1092 25.5417 25.3546C25.3524 25.8835 25.1375 26.4041 24.9323 26.9283C24.2893 28.5701 23.6503 30.2126 23.0032 31.8537C22.8664 32.2031 22.7158 32.5483 22.5574 32.8901C21.6278 34.9082 20.7056 36.9312 19.5116 38.8378C18.4797 40.4829 17.4079 42.1063 16.3341 43.7294C15.6608 44.748 14.9533 45.7479 14.257 46.7551C14.1273 46.9432 13.9859 47.1272 13.8332 47.3039C13.178 48.0694 12.599 48.8757 12.032 49.6966C10.9917 51.2074 9.88233 52.6841 8.58121 54.0416C8.41937 54.2113 8.2762 54.3932 8.1293 54.5727C7.21748 55.6777 6.23364 56.7302 5.2067 57.7552C4.31663 58.643 3.57221 59.6271 2.85723 60.622C2.27528 61.4331 1.921 62.3504 1.49354 63.2329C1.29565 63.6399 1.092 64.0441 0.908304 64.4538C0.739114 64.8308 0.583786 65.2122 0.440308 65.5976C0.355607 65.8259 0.432309 65.9092 0.812876 66.0955C0.887773 66.1325 0.95073 66.1885 1.05123 66.2569C1.06532 66.3834 1.10193 66.5353 1.09159 66.6802C1.05299 67.2338 1.43921 67.5131 1.99102 67.6925C2.15916 67.747 2.32858 67.7946 2.49672 67.8491C3.11115 68.0526 3.7102 68.0692 4.2909 67.8364C4.71743 67.665 5.17267 67.5309 5.57051 67.3223C6.66639 66.7472 7.7148 66.1119 8.59153 65.3065C9.7242 64.2659 10.8331 63.2067 11.9311 62.1384C12.3518 61.7289 12.7196 61.2776 13.0907 60.8305C14.9232 58.6294 16.5915 56.3303 18.2897 54.0509C19.186 52.8493 20.0403 51.6257 20.8146 50.3588C21.9435 48.509 23.1629 46.7027 24.201 44.8111C24.7838 43.7489 25.3297 42.671 25.8891 41.5992C26.2034 40.9964 26.5041 40.3874 26.8279 39.7899C27.6228 38.3234 28.2078 36.7787 28.895 35.2708C29.2543 34.4835 29.6197 33.6973 29.9769 32.9097C30.1165 32.6014 30.2908 32.2979 30.362 31.9733C30.6926 30.5101 31.3469 29.1447 31.8023 27.7208C32.1102 26.7594 32.4462 25.805 32.7424 24.8395C33.0711 23.767 33.3759 22.6882 33.6807 21.6094C33.9747 20.5658 34.2504 19.5187 34.5441 18.4767C34.5564 18.4331 34.6722 18.4087 34.7445 18.3922C34.7687 18.3861 34.8305 18.426 34.8423 18.4529C34.9179 18.6316 35.0128 18.8086 35.052 18.9911C35.3838 20.5589 35.7156 22.1266 35.8856 23.7065C35.9799 24.5699 36.1124 25.4315 36.1413 26.2968C36.1618 26.8597 36.1989 27.4239 36.2363 27.9865C36.2637 28.4003 36.2611 28.8174 36.3378 29.2262C36.5677 30.4299 36.5674 31.6311 36.6071 32.831C36.6357 33.6644 36.825 34.4801 37.0332 35.2957C37.0416 35.3292 37.1542 35.3555 37.2228 35.3702C37.241 35.3736 37.2928 35.3213 37.2942 35.2915C37.3139 35.1077 37.336 34.9225 37.3331 34.7362C37.3285 34.2116 37.3117 33.6848 37.303 33.1595C37.3027 33.1276 37.3378 33.097 37.3597 33.0586C37.4191 33.0998 37.5156 33.1338 37.5299 33.1807C37.6757 33.7016 37.8541 34.2056 38.2552 34.6523C38.3889 34.8011 38.4398 35 38.535 35.1752C38.647 35.3838 38.7607 35.5944 38.8815 35.801C39.0771 36.1348 39.3773 36.3467 39.8188 36.3869C40.1715 36.4193 40.5225 36.4496 40.8749 36.4838C41.3036 36.5251 41.6435 36.3906 41.9229 36.1421C42.1943 35.9027 42.3952 35.6254 42.4632 35.2843C42.5361 34.9176 42.6066 34.5522 42.6734 34.1843C42.7469 33.7805 42.8163 33.376 42.8898 32.9722C42.8982 32.972 42.8885 32.979 42.8885 32.979Z" fill="#1F80B9"/>
</svg>
