<svg width="152" height="9" viewBox="0 0 152 9" fill="none" xmlns="http://www.w3.org/2000/svg">
<path d="M41.1469 5.58724C39.8803 5.64629 38.613 5.57653 37.347 5.55871C36.7055 5.54974 36.0929 5.5794 35.5102 5.77344C34.9118 5.97255 34.269 5.88668 33.668 5.75336C33.4752 5.71036 33.3555 5.55468 33.1872 5.462C33.0017 5.36088 32.7672 5.35082 32.5392 5.39067C32.3769 5.41957 32.2092 5.46192 32.0776 5.52222C31.7419 5.67655 31.3722 5.74547 30.9531 5.73921C30.8393 5.73732 30.7236 5.74787 30.608 5.75427C29.8659 5.7996 29.1789 6.08841 28.419 5.99129C27.659 5.8952 26.9248 6.04031 26.1817 5.99526C25.7076 5.96676 25.276 6.0134 24.8421 6.13168C24.1144 6.32878 23.3952 6.3213 22.7074 6.03358C22.458 5.92886 22.1718 5.92359 21.8781 5.97333C21.626 6.01507 21.5579 6.11948 21.7535 6.26222C21.8547 6.33674 21.8974 6.40458 21.7506 6.41698C21.471 6.44085 21.1707 6.4521 20.8967 6.41889C20.5659 6.37901 20.253 6.23642 19.9288 6.23191C19.6027 6.22738 19.2792 6.35998 18.9426 6.39173C18.5474 6.42824 18.1403 6.42622 17.7383 6.43151C17.0396 6.4408 16.3563 6.48554 15.7507 6.71785C15.4965 6.81566 15.2271 6.85309 14.9308 6.79581C14.5346 6.71908 14.1397 6.70573 13.7423 6.79C13.6888 6.80103 13.6336 6.81204 13.5783 6.82098C12.8599 6.92777 12.1017 6.8286 11.3877 7.05073C10.7341 7.25462 9.95911 7.31528 9.27643 7.49297C8.62833 7.66055 7.96177 7.75631 7.27166 7.77398C5.65507 7.81586 4.08377 8.03259 2.49574 8.17752C2.15397 8.2082 1.81565 8.23786 1.5007 8.14304C1.43765 7.1152 1.13431 7.08279 3.02733 6.75109C3.57831 6.65446 4.12419 6.54845 4.67177 6.44556C5.13815 6.35765 5.51002 6.21917 5.55564 5.88606C5.56475 5.82069 5.60168 5.72539 5.67778 5.69895C6.2467 5.50793 6.65408 5.24193 6.87248 4.86857C6.90393 4.81582 7.04057 4.76804 7.14246 4.75218C7.42048 4.71168 7.70714 4.66708 7.99003 4.66608C8.99054 4.66009 9.9198 4.49361 10.8288 4.26567C11.6238 4.06596 12.4308 3.8819 13.2171 3.66862C14.173 3.40987 15.1523 3.2396 16.2149 3.23928C16.7323 3.23901 17.2501 3.20239 17.7661 3.1751C18.917 3.11415 20.0609 3.08325 21.2085 3.23938C22.0702 3.357 22.945 3.3189 23.769 3.14953C24.3841 3.02222 24.995 2.97695 25.6332 2.98382C26.6733 2.99475 27.7017 2.95262 28.7204 2.80965C29.1608 2.74751 29.6422 2.72723 30.0887 2.76383C30.6283 2.80736 31.0875 2.7568 31.5835 2.63067C31.9325 2.54188 32.3759 2.54831 32.7707 2.56997C33.7484 2.62406 34.7207 2.68852 35.7011 2.60758C35.758 2.60281 35.8167 2.60221 35.8737 2.60471C36.5599 2.64415 37.2492 2.72307 37.9341 2.71263C38.6173 2.70218 39.2877 2.54725 39.9909 2.62524C40.1012 2.63749 40.2254 2.63533 40.3342 2.61953C41.5862 2.43156 42.8502 2.49195 44.1157 2.56586C45.1605 2.62669 46.1844 2.50347 47.2045 2.41348C47.8345 2.35797 48.4541 2.31277 49.0906 2.3134C49.6081 2.31417 50.129 2.30042 50.6433 2.27C51.161 2.23961 51.6719 2.2154 52.1942 2.25568C52.4769 2.27755 52.7686 2.25689 53.0567 2.24763C53.5157 2.23342 53.9819 2.17251 54.4301 2.206C54.8145 2.23487 55.1792 2.36744 55.5873 2.46192C56.2597 2.27167 56.9696 2.1513 57.7287 2.12999C58.0686 2.12112 58.4055 2.05095 58.7371 1.99734C59.2466 1.91495 59.7489 1.8699 60.2638 1.98908C60.4239 2.0256 60.603 2.06433 60.7669 2.05725C62.0317 2.00338 63.2936 2.1074 64.5617 2.0629C65.9403 2.01508 67.3271 2.02964 68.7104 2.02965C70.1525 2.03009 71.5797 1.95459 72.9902 1.78132C73.1025 1.76762 73.2148 1.73835 73.3269 1.74023C73.9322 1.74997 74.4472 1.62815 74.9129 1.39896C75.1016 1.30585 75.3776 1.3048 75.5389 1.42339C75.9421 1.71625 76.4639 1.81885 77.0605 1.85242C77.7519 1.89085 78.4417 1.92823 79.1271 1.84301C79.5863 1.78621 80.0381 1.80829 80.5001 1.84397C80.8966 1.875 81.3105 1.89472 81.7006 1.85715C82.1753 1.81084 82.6048 1.8151 83.0367 1.96066C83.2965 2.04883 83.6001 2.03761 83.8817 1.98986C84.2168 1.93316 84.548 1.90554 84.9016 1.91131C87.437 1.94698 89.9725 1.97743 92.508 2.00063C93.2031 2.00689 93.893 2.01729 94.5631 2.14386C95.2366 2.2715 95.9319 2.25385 96.6217 2.26837C96.9012 2.2736 96.9218 2.28829 97.2057 2.61557C97.8593 2.62048 98.5458 2.62563 99.2493 2.63092C99.4026 2.43574 98.9124 2.51621 98.932 2.38028C99.938 2.1489 100.28 2.10783 100.878 2.16737C101.105 2.18986 101.329 2.22583 101.553 2.26076C102.238 2.36977 102.87 2.36414 103.565 2.19796C104.359 2.00965 105.226 1.97983 106.114 2.07376C107.013 2.16881 107.927 2.28267 108.861 2.1723C109.125 2.14104 109.432 2.19942 109.709 2.24306C111.511 2.52461 113.339 2.63806 115.195 2.59383C116.232 2.56941 117.27 2.57307 118.283 2.76455C118.674 2.83813 119.087 2.82875 119.482 2.76524C120.508 2.60154 121.536 2.63107 122.566 2.75412C122.68 2.76743 122.794 2.78595 122.908 2.78784C123.655 2.79968 124.414 2.75865 125.145 2.83166C125.877 2.90468 126.579 3.08968 127.339 3.112C128.035 3.13281 128.707 3.22615 129.37 3.35891C130.09 3.50247 130.826 3.56098 131.587 3.53657C132.452 3.50775 133.317 3.52671 134.167 3.65047C134.629 3.71731 135.076 3.68224 135.534 3.62023C136.512 3.48839 137.48 3.5351 138.393 3.80168C138.831 3.92961 139.269 3.96511 139.736 3.92292C140.078 3.89224 140.418 3.85325 140.762 3.83609C141.4 3.80245 142.035 3.8145 142.615 4.01103C143.041 4.15655 143.483 4.1713 143.954 4.12289C144.236 4.09385 144.528 4.10641 144.813 4.08882C145.226 4.06283 145.146 4.3479 145.346 4.4003C145.776 4.5126 146.256 4.48194 146.698 4.38968C147.545 4.2153 148.405 4.27265 149.267 4.32483C149.971 4.36751 150.466 4.60186 150.657 5.00324C150.771 5.24198 150.92 5.45501 151.15 5.65826C151.313 5.80284 151.232 5.9518 150.88 6.07694C150.609 6.17358 150.448 6.28354 150.414 6.47754C150.396 6.57401 150.321 6.68044 150.216 6.75445C150.064 6.86341 149.831 6.91153 149.593 6.88793C149.428 6.87215 149.254 6.83344 149.118 6.77528C148.585 6.54586 147.999 6.42825 147.351 6.38494C146.553 6.3322 145.774 6.20376 144.949 6.28275C144.573 6.31939 144.159 6.21863 143.763 6.18138C143.558 6.16217 143.449 6.22266 143.46 6.35155C143.483 6.62701 143.41 6.7158 143.145 6.71276C142.799 6.71017 142.448 6.72208 142.114 6.68114C140.973 6.53856 139.822 6.52574 138.668 6.52953C137.454 6.53288 136.252 6.51244 135.065 6.31342C134.629 6.24055 134.149 6.2172 133.698 6.23354C132.998 6.25842 132.317 6.23878 131.639 6.13499C131.417 6.10112 131.186 6.0838 130.956 6.06961C130.43 6.03657 129.922 6.06288 129.456 6.23285C129.264 6.30205 129.046 6.34613 128.802 6.41285C127.896 6.16608 126.916 6.12341 125.949 6.0372C125.264 5.97596 124.582 5.91474 123.895 5.86284C123.554 5.83742 123.204 5.8109 122.863 5.82288C121.335 5.87789 121.335 5.88411 120.194 5.67193C120.028 5.64161 119.872 5.59471 119.711 5.55507L119.723 5.54791C119.452 5.59678 119.18 5.64355 118.908 5.69345C118.727 5.72636 118.666 5.80901 118.608 5.91453C118.5 6.11524 118.393 6.13106 118.137 6.04395C117.888 5.95899 117.649 5.85852 117.388 5.79527C117.174 5.7438 116.861 5.72688 116.744 5.84547C116.357 6.23937 115.746 6.10288 115.196 6.11538C114.905 6.1215 114.91 6.11116 114.821 5.80092C114.802 5.73845 114.738 5.66835 114.657 5.62827C114.573 5.58712 114.445 5.56228 114.337 5.56043C113.878 5.54972 113.412 5.52129 112.961 5.55427C112.391 5.59672 111.833 5.66003 111.248 5.60267C110.973 5.57567 110.679 5.62646 110.393 5.63469C110.107 5.64189 109.799 5.68113 109.537 5.63346C108.793 5.49699 108.052 5.54751 107.309 5.58452C106.617 5.61984 105.935 5.61055 105.25 5.50671C104.749 5.43127 104.221 5.42419 103.712 5.3622C103.189 5.29801 102.696 5.29224 102.199 5.43809C101.948 5.51205 101.646 5.5669 101.372 5.55862C99.88 5.51209 98.3779 5.70961 96.8946 5.45228C96.6224 5.40556 96.3206 5.39705 96.0359 5.40946C95.2819 5.44327 94.5387 5.40966 93.8047 5.3065C93.2704 5.23081 92.7797 5.34656 92.2739 5.40093C92.0409 5.4262 91.8554 5.31157 91.8515 5.1443C91.85 5.11001 91.8658 5.07585 91.8799 5.04167C91.9238 4.93501 91.9263 4.82803 91.7387 4.77363C91.5184 4.71069 91.2905 4.72249 91.0813 4.80091C91.0345 4.81821 90.9827 4.84587 90.9652 4.87587C90.7887 5.17268 90.4187 5.2821 89.9182 5.32924C89.005 5.41484 88.1056 5.51506 87.1787 5.36994C86.7427 5.30226 86.2588 5.43886 85.8375 5.25287C85.688 5.1863 85.5032 5.20569 85.363 5.27735C85.0288 5.44625 84.6319 5.46613 84.2232 5.45994C82.783 5.43666 81.3428 5.41025 79.9044 5.38905C79.2421 5.37889 78.8331 5.17221 78.6168 4.80805C78.5776 4.74231 78.5539 4.67461 78.5234 4.60686C78.5683 4.60409 78.6166 4.6055 78.6581 4.59646C78.6892 4.58943 78.7135 4.56986 78.7412 4.55552C78.6737 4.57683 78.6062 4.59815 78.5388 4.61946C78.4215 4.61962 78.306 4.61977 78.1887 4.61992L78.206 4.60968C78.0796 4.89544 77.8056 5.09283 77.3339 5.20251C76.4958 5.39775 75.6657 5.458 74.8241 5.21068C74.4936 5.11367 74.1607 5.11115 73.8153 5.16777C73.5942 5.20351 73.368 5.23193 73.1453 5.26766C72.6824 5.34417 72.2322 5.33664 71.8073 5.18801C71.274 5.00118 70.7204 4.98145 70.1384 5.0768C69.9744 5.10362 69.7983 5.1054 69.6293 5.1166C69.4601 5.12779 69.354 5.01896 69.4255 4.90211C69.485 4.80595 69.5633 4.71408 69.614 4.61786C69.6262 4.59406 69.5869 4.53976 69.5473 4.52803C69.4493 4.49925 69.3305 4.462 69.2321 4.47061C68.8714 4.50529 68.6492 4.67916 68.3844 4.8091C68.1091 4.94311 67.8119 5.02088 67.4496 5.04101C66.937 5.06936 66.4226 5.11328 65.9219 5.18431C65.34 5.26616 64.7673 5.26395 64.2231 5.13209C63.7806 5.02489 63.3829 4.92841 62.9194 5.09425C62.8156 5.13191 62.5971 5.05546 62.4316 5.03241C62.3196 5.01703 62.1992 4.98079 62.0973 4.99353C61.7089 5.04047 61.3163 5.16425 60.9439 5.14173C60.5698 5.11814 60.2417 4.93494 59.8158 4.9172C58.8863 4.87906 57.9861 4.86397 57.1385 5.17028C56.867 5.26901 56.4772 5.26194 56.1372 5.27808C55.9112 5.28885 55.6733 5.27147 55.451 5.23655C54.8067 5.13614 54.2025 5.19499 53.5977 5.33899C52.5955 5.57663 51.5591 5.53351 50.5372 5.38664C50.0393 5.31434 49.573 5.16436 49.0495 5.03889C48.7491 5.08234 48.4191 5.14323 48.0825 5.17394C47.7424 5.20566 47.3958 5.20929 47.0506 5.2202C46.6918 5.23205 46.403 5.33064 46.1089 5.44686C45.7837 5.57634 45.6613 5.55881 45.4371 5.31717C45.2438 5.11003 44.9944 5.00324 44.6201 4.99939C44.2803 4.99683 43.9422 5.013 43.5195 5.02229C43.7169 5.1505 43.8507 5.2367 44.0156 5.34389C43.4629 5.44362 42.878 5.45895 42.4242 5.70173C42.2891 5.77447 41.9805 5.76074 41.765 5.73939C41.5462 5.71697 41.3432 5.63442 41.1349 5.57884C41.1834 5.56154 41.2318 5.54424 41.2802 5.52591C41.2335 5.54426 41.1902 5.56576 41.1469 5.58724ZM35.2972 5.17973C36.1617 5.37009 36.6606 5.33123 37.1521 5.337C37.309 5.33922 37.4663 5.30091 37.6355 5.27933C37.5875 5.23846 37.5654 5.19676 37.531 5.19235C36.9278 5.12341 36.3258 5.12201 35.2972 5.17973ZM71.5945 4.58391C71.5725 4.51726 71.5746 4.46846 71.554 4.46519C71.4488 4.44674 71.3385 4.43552 71.2299 4.43367C71.2023 4.43346 71.1727 4.47374 71.145 4.49534C71.2862 4.52341 71.4257 4.55044 71.5945 4.58391ZM143.572 4.50645C143.53 4.52483 143.487 4.54321 143.446 4.5616C143.542 4.57583 143.638 4.58901 143.735 4.60324C143.734 4.57622 143.749 4.53375 143.729 4.52528C143.687 4.50939 143.626 4.51205 143.572 4.50645Z" fill="#1F80B9"/>
<path d="M43.8322 5.69877C43.7993 5.71305 43.7662 5.73874 43.7351 5.73852C43.7023 5.73827 43.6714 5.71105 43.6404 5.69629C43.6733 5.682 43.7063 5.65527 43.7374 5.65654C43.7703 5.65575 43.8012 5.68296 43.8322 5.69877Z" fill="#1F80B9"/>
</svg>
