<svg width="75" height="8" viewBox="0 0 75 8" fill="none" xmlns="http://www.w3.org/2000/svg">
<path d="M20.0814 4.88269C19.4537 4.94264 18.8257 4.87181 18.1983 4.85372C17.8803 4.84461 17.5767 4.87473 17.2879 5.07172C16.9914 5.27386 16.6728 5.18669 16.375 5.05134C16.2794 5.00768 16.2201 4.84963 16.1367 4.75554C16.0447 4.65288 15.9285 4.64267 15.8155 4.68312C15.7351 4.71246 15.652 4.75546 15.5868 4.81668C15.4204 4.97336 15.2372 5.04333 15.0295 5.03697C14.9731 5.03505 14.9158 5.04576 14.8585 5.05226C14.4907 5.09828 14.1502 5.39149 13.7736 5.29289C13.3969 5.19534 13.0331 5.34266 12.6648 5.29692C12.4298 5.26799 12.216 5.31534 12.0009 5.43542C11.6403 5.63552 11.2839 5.62792 10.943 5.33582C10.8194 5.22951 10.6775 5.22416 10.532 5.27466C10.407 5.31703 10.3733 5.42303 10.4702 5.56795C10.5204 5.6436 10.5415 5.71247 10.4688 5.72506C10.3303 5.7493 10.1814 5.76072 10.0456 5.727C9.88166 5.68651 9.72659 5.54175 9.56593 5.53717C9.40434 5.53257 9.24401 5.66719 9.07717 5.69943C8.8813 5.73649 8.67955 5.73444 8.48032 5.73981C8.13407 5.74925 7.79541 5.79467 7.49531 6.03051C7.36931 6.12981 7.23581 6.16781 7.08897 6.10966C6.89262 6.03176 6.6969 6.01821 6.49997 6.10376C6.47343 6.11496 6.44607 6.12614 6.41866 6.13521C6.06262 6.24363 5.68686 6.14295 5.33301 6.36846C5.0091 6.57546 4.62504 6.63704 4.28671 6.81744C3.96551 6.98757 3.63517 7.08479 3.29315 7.10273C2.49199 7.14524 1.71326 7.36528 0.926249 7.51241C0.756869 7.54356 0.589204 7.57367 0.433116 7.47741C0.401872 6.43391 0.251539 6.40101 1.1897 6.06426C1.46276 5.96616 1.73329 5.85853 2.00467 5.75408C2.23581 5.66483 2.4201 5.52424 2.44271 5.18606C2.44723 5.11969 2.46553 5.02294 2.50324 4.9961C2.7852 4.80217 2.98709 4.53212 3.09533 4.15307C3.11091 4.09952 3.17863 4.05101 3.22913 4.03491C3.36691 3.99379 3.50897 3.94851 3.64918 3.9475C4.14502 3.94142 4.60555 3.7724 5.05603 3.54099C5.45005 3.33824 5.84996 3.15138 6.23969 2.93485C6.71341 2.67216 7.19871 2.4993 7.72535 2.49897C7.98178 2.4987 8.2384 2.46152 8.4941 2.43381C9.06451 2.37193 9.63141 2.34056 10.2002 2.49907C10.6272 2.61848 11.0607 2.5798 11.4691 2.40785C11.7739 2.27861 12.0767 2.23265 12.393 2.23962C12.9084 2.25072 13.4181 2.20795 13.923 2.0628C14.1413 1.99971 14.3798 1.97912 14.6011 2.01628C14.8685 2.06047 15.0961 2.00914 15.3419 1.88109C15.5149 1.79095 15.7346 1.79748 15.9303 1.81947C16.4148 1.87438 16.8967 1.93982 17.3825 1.85765C17.4108 1.85281 17.4398 1.8522 17.4681 1.85474C17.8081 1.89478 18.1498 1.9749 18.4892 1.9643C18.8278 1.95369 19.16 1.7964 19.5086 1.87558C19.5632 1.88802 19.6248 1.88582 19.6787 1.86978C20.2992 1.67895 20.9256 1.74026 21.5527 1.8153C22.0706 1.87705 22.578 1.75196 23.0835 1.6606C23.3958 1.60424 23.7028 1.55835 24.0183 1.55899C24.2747 1.55977 24.5329 1.54581 24.7878 1.51493C25.0444 1.48408 25.2975 1.4595 25.5564 1.50039C25.6965 1.52259 25.8411 1.50162 25.9839 1.49222C26.2113 1.47779 26.4423 1.41596 26.6645 1.44996C26.855 1.47926 27.0357 1.61385 27.238 1.70977C27.5712 1.51663 27.923 1.39442 28.2992 1.37279C28.4677 1.36378 28.6347 1.29254 28.799 1.23812C29.0515 1.15447 29.3005 1.10874 29.5556 1.22973C29.635 1.26681 29.7237 1.30613 29.8049 1.29894C30.4318 1.24425 31.0572 1.34985 31.6856 1.30468C32.3689 1.25613 33.0561 1.27091 33.7417 1.27092C34.4564 1.27137 35.1637 1.19472 35.8627 1.01881C35.9184 1.0049 35.974 0.975179 36.0296 0.977089C36.3296 0.986978 36.5848 0.863307 36.8156 0.630624C36.9091 0.536092 37.0459 0.535027 37.1258 0.655428C37.3256 0.952741 37.5843 1.05691 37.8799 1.09099C38.2226 1.13001 38.5644 1.16796 38.9041 1.08144C39.1317 1.02377 39.3556 1.04619 39.5846 1.08241C39.7811 1.11391 39.9862 1.13394 40.1795 1.09579C40.4148 1.04878 40.6276 1.0531 40.8417 1.20088C40.9704 1.29039 41.1209 1.279 41.2604 1.23052C41.4265 1.17296 41.5907 1.14492 41.7659 1.15078C43.0224 1.18699 44.279 1.2179 45.5356 1.24146C45.8801 1.24781 46.222 1.25837 46.554 1.38687C46.8878 1.51645 47.2324 1.49853 47.5743 1.51328C47.7128 1.51858 47.723 1.5335 47.8637 1.86576C48.1877 1.87075 48.5279 1.87598 48.8765 1.88135C48.9525 1.68319 48.7095 1.76489 48.7193 1.62689C49.2178 1.39199 49.3872 1.35029 49.6837 1.41074C49.7962 1.43357 49.9072 1.47009 50.0182 1.50555C50.3575 1.61622 50.6711 1.6105 51.0153 1.44179C51.4087 1.25062 51.8386 1.22034 52.2787 1.3157C52.7242 1.4122 53.177 1.52779 53.64 1.41574C53.7709 1.38401 53.9228 1.44328 54.0601 1.48758C54.9535 1.77342 55.8591 1.88859 56.7792 1.84369C57.2929 1.8189 57.8075 1.82262 58.3095 2.01701C58.5032 2.09171 58.7077 2.08219 58.9039 2.01771C59.4122 1.85152 59.9215 1.8815 60.4322 2.00642C60.4886 2.01994 60.5451 2.03874 60.6016 2.04066C60.9716 2.05268 61.348 2.01102 61.7102 2.08514C62.0729 2.15928 62.421 2.34709 62.7973 2.36975C63.1425 2.39088 63.4755 2.48564 63.8042 2.62042C64.161 2.76617 64.5257 2.82557 64.903 2.80079C65.3315 2.77153 65.7604 2.79078 66.1815 2.91642C66.4103 2.98428 66.6319 2.94868 66.8587 2.88572C67.3437 2.75187 67.8232 2.7993 68.276 3.06993C68.4926 3.19981 68.7098 3.23585 68.9415 3.19302C69.111 3.16187 69.2794 3.12229 69.4498 3.10487C69.7663 3.07072 70.0808 3.08295 70.368 3.28247C70.5793 3.43021 70.7984 3.44518 71.0316 3.39604C71.1714 3.36655 71.3164 3.37931 71.4576 3.36145C71.6621 3.33506 71.6227 3.62447 71.7215 3.67767C71.9348 3.79168 72.1728 3.76055 72.3919 3.66689C72.8116 3.48985 73.2376 3.54808 73.6651 3.60105C74.0136 3.64438 74.259 3.8823 74.354 4.28979C74.4104 4.53217 74.484 4.74844 74.5979 4.95479C74.6787 5.10157 74.6388 5.2528 74.4645 5.37984C74.3301 5.47796 74.2503 5.58959 74.2332 5.78654C74.2245 5.88448 74.187 5.99253 74.1354 6.06767C74.0599 6.17829 73.9445 6.22714 73.8262 6.20318C73.7444 6.18716 73.6582 6.14786 73.5911 6.08882C73.3267 5.8559 73.0365 5.7365 72.7152 5.69253C72.3199 5.63899 71.9338 5.5086 71.5248 5.58879C71.3383 5.62599 71.1334 5.52369 70.9372 5.48587C70.8354 5.46637 70.7814 5.52778 70.7867 5.65864C70.7984 5.93829 70.7624 6.02843 70.6309 6.02535C70.4596 6.02272 70.2853 6.03481 70.1197 5.99324C69.5545 5.84849 68.9839 5.83548 68.4123 5.83933C67.8105 5.84273 67.2146 5.82198 66.6265 5.61993C66.4103 5.54595 66.1728 5.52224 65.9488 5.53883C65.6021 5.56409 65.2648 5.54415 64.9283 5.43878C64.8183 5.40439 64.7039 5.38681 64.59 5.3724C64.3295 5.33886 64.0778 5.36557 63.8465 5.53813C63.7516 5.60838 63.6435 5.65313 63.5228 5.72087C63.0734 5.47034 62.588 5.42702 62.1084 5.3395C61.7691 5.27733 61.4312 5.21517 61.0909 5.16248C60.922 5.13668 60.7481 5.10975 60.5792 5.12191C59.8221 5.17776 59.8221 5.18408 59.2564 4.96867C59.1741 4.93788 59.0967 4.89027 59.0173 4.85003L59.0232 4.84276C58.8888 4.89237 58.754 4.93985 58.6191 4.99051C58.5295 5.02393 58.4993 5.10783 58.4706 5.21496C58.417 5.41873 58.364 5.43479 58.2369 5.34635C58.1137 5.2601 57.9954 5.1581 57.8659 5.09388C57.7598 5.04163 57.6045 5.02445 57.5465 5.14485C57.3547 5.54475 57.0519 5.40618 56.7797 5.41887C56.6351 5.42508 56.6381 5.41458 56.5938 5.09962C56.5845 5.0362 56.5524 4.96503 56.5125 4.92434C56.4706 4.88257 56.4073 4.85735 56.3537 4.85547C56.1264 4.84459 55.8956 4.81573 55.6721 4.84921C55.3893 4.89231 55.1127 4.95659 54.823 4.89835C54.6867 4.87094 54.5411 4.9225 54.399 4.93086C54.2573 4.93817 54.1049 4.97801 53.9749 4.92961C53.6064 4.79106 53.2393 4.84235 52.8707 4.87992C52.528 4.91578 52.1901 4.90635 51.8503 4.80093C51.602 4.72434 51.3405 4.71715 51.0883 4.65422C50.8288 4.58905 50.5844 4.58319 50.3386 4.73127C50.2139 4.80635 50.0645 4.86204 49.9286 4.85363C49.1891 4.80639 48.4446 5.00692 47.7096 4.74567C47.5746 4.69824 47.4251 4.6896 47.284 4.7022C46.9103 4.73652 46.542 4.7024 46.1782 4.59767C45.9134 4.52083 45.6702 4.63834 45.4196 4.69354C45.3041 4.71919 45.2122 4.60282 45.2102 4.433C45.2095 4.39819 45.2173 4.36351 45.2243 4.32881C45.246 4.22052 45.2473 4.11191 45.1543 4.05669C45.0451 3.99279 44.9322 4.00477 44.8285 4.08438C44.8053 4.10195 44.7796 4.13003 44.771 4.16048C44.6835 4.46181 44.5001 4.5729 44.2521 4.62076C43.7995 4.70766 43.3538 4.80941 42.8944 4.66208C42.6783 4.59337 42.4385 4.73205 42.2297 4.54322C42.1556 4.47564 42.0641 4.49533 41.9946 4.56808C41.829 4.73955 41.6323 4.75973 41.4297 4.75345C40.7159 4.72981 40.0022 4.703 39.2893 4.68148C38.9611 4.67116 38.7584 4.46134 38.6512 4.09163C38.6318 4.02489 38.6201 3.95616 38.6049 3.88738C38.6272 3.88456 38.6511 3.886 38.6717 3.87682C38.6871 3.86968 38.6991 3.84981 38.7128 3.83525C38.6794 3.85689 38.646 3.87853 38.6126 3.90017C38.5544 3.90033 38.4972 3.90048 38.439 3.90064L38.4476 3.89024C38.385 4.18035 38.2492 4.38075 38.0154 4.4921C37.6001 4.69031 37.1887 4.75148 36.7716 4.50039C36.6078 4.4019 36.4428 4.39935 36.2716 4.45683C36.162 4.49311 36.05 4.52197 35.9396 4.55824C35.7102 4.63591 35.4871 4.62827 35.2765 4.47738C35.0122 4.2877 34.7378 4.26767 34.4494 4.36447C34.3681 4.3917 34.2809 4.39351 34.1971 4.40488C34.1132 4.41624 34.0606 4.30575 34.0961 4.18712C34.1255 4.0895 34.1643 3.99623 34.1895 3.89854C34.1956 3.87438 34.1761 3.81925 34.1565 3.80735C34.1079 3.77813 34.049 3.74031 34.0002 3.74905C33.8215 3.78426 33.7114 3.96078 33.5801 4.0927C33.4437 4.22875 33.2964 4.3077 33.1168 4.32814C32.8628 4.35692 32.6079 4.40151 32.3597 4.47362C32.0713 4.55672 31.7875 4.55447 31.5178 4.42061C31.2985 4.31177 31.1014 4.21382 30.8717 4.38219C30.8202 4.42042 30.712 4.34281 30.63 4.31941C30.5745 4.30379 30.5148 4.267 30.4643 4.27993C30.2718 4.32759 30.0772 4.45326 29.8927 4.43039C29.7073 4.40644 29.5447 4.22045 29.3336 4.20244C28.8729 4.16372 28.4268 4.1484 28.0068 4.45938C27.8722 4.55961 27.679 4.55243 27.5105 4.56882C27.3985 4.57975 27.2806 4.56211 27.1704 4.52666C26.8511 4.42472 26.5517 4.48446 26.252 4.63066C25.7553 4.87191 25.2416 4.82814 24.7352 4.67903C24.4884 4.60563 24.2574 4.45337 23.9979 4.32599C23.849 4.3701 23.6855 4.43191 23.5187 4.46309C23.3501 4.4953 23.1783 4.49898 23.0073 4.51006C22.8294 4.52209 22.6863 4.62218 22.5406 4.74017C22.3794 4.87162 22.3187 4.85382 22.2076 4.6085C22.1118 4.39821 21.9882 4.28979 21.8027 4.28588C21.6343 4.28329 21.4668 4.2997 21.2573 4.30913C21.3551 4.4393 21.4214 4.52681 21.5031 4.63563C21.2292 4.73688 20.9393 4.75244 20.7145 4.99892C20.6475 5.07277 20.4946 5.05883 20.3878 5.03715C20.2793 5.01439 20.1787 4.93058 20.0755 4.87416C20.0995 4.8566 20.1235 4.83903 20.1475 4.82042C20.1243 4.83905 20.1029 4.86088 20.0814 4.88269ZM17.1824 4.46897C17.6108 4.66223 17.8581 4.62278 18.1017 4.62864C18.1794 4.63089 18.2574 4.592 18.3412 4.57009C18.3175 4.5286 18.3065 4.48626 18.2894 4.48178C17.9905 4.41179 17.6921 4.41037 17.1824 4.46897ZM35.171 3.86408C35.1601 3.79641 35.1612 3.74687 35.1509 3.74355C35.0988 3.72482 35.0442 3.71343 34.9903 3.71155C34.9766 3.71134 34.962 3.75223 34.9482 3.77416C35.0182 3.80266 35.0873 3.8301 35.171 3.86408ZM70.8422 3.78544C70.8218 3.8041 70.8004 3.82276 70.7799 3.84143C70.8276 3.85587 70.8753 3.86925 70.923 3.8837C70.9226 3.85627 70.9304 3.81315 70.9201 3.80455C70.8997 3.78842 70.869 3.79112 70.8422 3.78544Z" fill="#1F80B9"/>
<path d="M21.4122 4.99594C21.3959 5.01044 21.3795 5.03652 21.3641 5.03629C21.3478 5.03604 21.3325 5.00841 21.3171 4.99342C21.3334 4.97892 21.3498 4.95177 21.3652 4.95306C21.3815 4.95226 21.3969 4.97989 21.4122 4.99594Z" fill="#1F80B9"/>
</svg>
