<svg width="23" height="20" viewBox="0 0 23 20" fill="none" xmlns="http://www.w3.org/2000/svg">
<path d="M22.4634 2.89056C21.7369 3.20349 20.9731 3.42141 20.191 3.53891C20.5566 3.47617 21.0947 2.81735 21.3089 2.55069C21.6343 2.14846 21.8823 1.68927 22.0403 1.19646C22.0403 1.15986 22.0768 1.10758 22.0403 1.08143C22.0218 1.07137 22.0012 1.06609 21.9802 1.06609C21.9592 1.06609 21.9385 1.07137 21.9201 1.08143C21.0708 1.54178 20.1669 1.89313 19.2297 2.12717C19.1971 2.13716 19.1623 2.13805 19.1292 2.12976C19.096 2.12147 19.0658 2.10431 19.0417 2.08011C18.9687 1.99317 18.8902 1.91108 18.8066 1.83436C18.4244 1.4916 17.9907 1.21106 17.5215 1.003C16.8881 0.742918 16.2039 0.63028 15.5207 0.673597C14.8577 0.715504 14.2104 0.893483 13.6191 1.19646C13.0368 1.5159 12.5251 1.94985 12.1146 2.47226C11.6828 3.00995 11.3711 3.63396 11.2004 4.3023C11.0596 4.93803 11.0437 5.59508 11.1534 6.23691C11.1534 6.34671 11.1534 6.36239 11.0593 6.34671C7.33461 5.7977 4.27856 4.47484 1.78147 1.63567C1.67177 1.51019 1.6143 1.51019 1.52549 1.63567C0.438894 3.28793 0.966521 5.90227 2.32477 7.19375C2.50761 7.3663 2.69567 7.53362 2.89419 7.69048C2.27144 7.64623 1.6639 7.47732 1.10757 7.19375C1.00309 7.12578 0.945625 7.16238 0.940401 7.28787C0.925592 7.46184 0.925592 7.63676 0.940401 7.81074C1.0494 8.6445 1.37769 9.43433 1.8917 10.0995C2.4057 10.7646 3.08698 11.2811 3.86586 11.5963C4.05573 11.6777 4.25357 11.739 4.45617 11.7793C3.87966 11.8929 3.28838 11.9106 2.70612 11.8316C2.58075 11.8054 2.53373 11.8734 2.58075 11.9937C3.34868 14.0851 5.01514 14.723 6.23757 15.0786C6.40474 15.1047 6.57191 15.1047 6.75997 15.1466C6.75997 15.1466 6.75997 15.1466 6.72863 15.1779C6.36817 15.8368 4.91066 16.2812 4.24199 16.5113C3.02148 16.95 1.7202 17.1178 0.428446 17.0027C0.224709 16.9714 0.177693 16.9766 0.125452 17.0027C0.073212 17.0289 0.125452 17.0864 0.182917 17.1387C0.444118 17.3112 0.70532 17.4629 0.976969 17.6093C1.78567 18.0508 2.64064 18.4015 3.5263 18.655C8.11299 19.9203 13.2743 18.9896 16.717 15.5649C19.423 12.8773 20.3738 9.17019 20.3738 5.45783C20.3738 5.31666 20.5462 5.233 20.6454 5.1598C21.3301 4.6259 21.9336 3.99537 22.4373 3.28793C22.5245 3.18248 22.5692 3.04821 22.5627 2.91147C22.5627 2.83304 22.5627 2.84873 22.4634 2.89056Z" fill="#E2D9C2"/>
</svg>
