<svg width="26" height="18" viewBox="0 0 26 18" fill="none" xmlns="http://www.w3.org/2000/svg">
<path d="M24.5813 2.87788C24.294 1.79788 23.4442 0.945883 22.3629 0.653883C20.4079 0.129883 12.5639 0.129883 12.5639 0.129883C12.5639 0.129883 4.72393 0.129883 2.76493 0.653883C1.68768 0.941883 0.837849 1.79388 0.546592 2.87788C0.0239258 4.83788 0.0239258 8.92988 0.0239258 8.92988C0.0239258 8.92988 0.0239258 13.0219 0.546592 14.9819C0.833859 16.0619 1.68369 16.9139 2.76493 17.2059C4.72393 17.7299 12.5639 17.7299 12.5639 17.7299C12.5639 17.7299 20.4079 17.7299 22.3629 17.2059C23.4402 16.9179 24.29 16.0659 24.5813 14.9819C25.1039 13.0219 25.1039 8.92988 25.1039 8.92988C25.1039 8.92988 25.1039 4.83788 24.5813 2.87788Z" fill="#E2D9C2"/>
<path d="M10.0583 12.702L16.5737 8.92996L10.0583 5.15796V12.702Z" fill="black"/>
</svg>
